<svg width="13" height="14" viewBox="0 0 13 14" fill="none" xmlns="http://www.w3.org/2000/svg">
<path fill-rule="evenodd" clip-rule="evenodd" d="M8.16268 9.66703C6.39796 10.95 3.91339 10.7957 2.32182 9.20414C0.559393 7.44171 0.559393 4.58425 2.32182 2.82182C4.08425 1.05939 6.94171 1.05939 8.70414 2.82182C10.3977 4.51541 10.4639 7.22015 8.9026 8.99273L11.1428 11.2329C11.338 11.4282 11.338 11.7448 11.1428 11.94C10.9475 12.1353 10.6309 12.1353 10.4357 11.94L8.16268 9.66703ZM3.02893 8.49703C4.40083 9.86894 6.62513 9.86894 7.99703 8.49703C9.36894 7.12513 9.36894 4.90083 7.99703 3.52893C6.62513 2.15702 4.40083 2.15702 3.02893 3.52893C1.65702 4.90083 1.65702 7.12513 3.02893 8.49703Z" fill="#797E8A"/>
</svg>
